<?xml version="1.0" standalone="no"?>
<!DOCTYPE svg PUBLIC "-//W3C//DTD SVG 20010904//EN"
 "http://www.w3.org/TR/2001/REC-SVG-20010904/DTD/svg10.dtd">
<svg version="1.0" xmlns="http://www.w3.org/2000/svg"
 width="1313.000000pt" height="1313.000000pt" viewBox="0 0 1313.000000 1313.000000"
 preserveAspectRatio="xMidYMid meet">
<metadata>
Created by potrace 1.11, written by Peter Selinger 2001-2013
</metadata>
<g transform="translate(0.000000,1313.000000) scale(0.100000,-0.100000)"
fill="#000000" stroke="none">
<path d="M9042 11078 c-6 -7 -13 -38 -17 -68 -11 -102 -64 -153 -300 -293
-185 -109 -645 -275 -954 -342 -48 -11 -68 -15 -116 -25 -104 -20 -131 -25
-190 -34 -177 -26 -238 -33 -357 -41 -51 -4 -106 -8 -123 -10 -16 -2 -38 2
-49 7 -13 7 -16 7 -12 -1 4 -6 0 -11 -9 -11 -9 0 -13 5 -10 11 5 6 -9 10 -37
9 -23 -1 -133 2 -243 6 -337 12 -768 6 -796 -12 -13 -7 -11 5 6 64 54 180 276
397 585 570 52 30 86 51 75 49 -11 -3 -45 -12 -75 -21 -30 -8 -97 -27 -149
-41 -99 -28 -154 -59 -286 -163 -154 -122 -281 -262 -371 -410 -26 -42 -49
-78 -50 -80 -1 -3 -21 -7 -84 -18 -56 -10 -270 -70 -332 -94 l-57 -21 -94 30
c-222 71 -364 91 -607 86 -102 -2 -201 -6 -220 -9 -19 -4 -60 -11 -90 -17
-126 -23 -265 -79 -354 -143 -138 -99 -278 -292 -361 -496 -14 -36 -30 -74
-34 -85 -5 -11 -13 -32 -19 -47 -10 -25 -15 -27 -54 -23 -115 10 -161 20 -272
56 -236 76 -459 224 -656 434 -227 241 -270 274 -306 234 -34 -38 8 -262 81
-434 84 -198 157 -334 260 -489 41 -62 83 -121 93 -132 9 -10 29 -35 44 -55
15 -20 63 -73 108 -117 72 -72 90 -102 60 -102 -5 0 -30 -13 -56 -29 -34 -22
-56 -29 -82 -27 -190 16 -377 110 -558 279 -84 78 -87 75 -34 -38 84 -178 239
-338 382 -395 18 -7 35 -15 37 -16 2 -2 -20 -30 -48 -63 -89 -102 -176 -322
-196 -489 -4 -42 -3 -49 12 -50 62 -4 215 -2 223 3 20 12 19 -18 -4 -117 -14
-56 -27 -125 -31 -153 -3 -27 -8 -59 -10 -70 -36 -172 -42 -782 -10 -1000 3
-16 7 -50 10 -75 8 -76 15 -124 20 -140 2 -8 7 -37 10 -65 4 -27 8 -58 11 -67
3 -9 7 -27 9 -40 45 -233 123 -505 229 -792 l25 -69 -32 -36 c-18 -20 -46 -51
-62 -70 -228 -260 -433 -474 -570 -599 l-58 -53 -76 6 c-135 12 -226 -26 -291
-119 -55 -80 -159 -96 -323 -47 -122 36 -167 63 -267 162 -272 269 -452 343
-645 265 -151 -60 -227 -114 -259 -181 -36 -75 -14 -195 59 -326 71 -126 142
-175 300 -204 141 -27 183 -50 242 -133 96 -134 71 -292 -112 -712 -141 -324
-208 -495 -194 -495 1 0 -3 -10 -10 -23 -7 -12 -15 -56 -18 -98 -5 -69 -3 -79
25 -137 51 -100 108 -150 189 -163 79 -13 104 -39 188 -201 42 -81 70 -114
119 -137 49 -23 85 -12 158 49 137 113 163 113 283 -7 120 -120 195 -120 379
-1 167 110 234 187 417 487 66 107 149 195 215 225 27 13 60 28 74 34 42 20
153 139 196 213 56 94 110 219 140 323 32 111 39 158 38 257 -2 88 -13 118
-63 170 -65 68 -37 111 91 134 41 8 59 17 80 42 59 69 17 158 -124 263 -21 15
-38 31 -38 35 0 5 46 89 103 187 56 98 111 195 122 216 11 20 22 37 25 37 3 0
38 -58 79 -128 205 -353 429 -675 780 -1122 80 -102 151 -192 158 -200 202
-259 455 -517 633 -645 30 -22 57 -42 60 -46 3 -3 32 -22 65 -42 263 -159 476
-226 740 -232 77 -1 169 1 205 6 36 4 85 11 110 14 117 15 327 104 479 203
199 130 480 386 720 657 24 28 56 64 70 80 15 17 64 75 110 130 46 55 93 111
105 125 47 56 241 306 367 475 346 462 630 876 849 1235 62 102 123 199 134
215 12 17 28 41 35 55 7 14 53 57 102 95 382 298 824 519 1329 665 103 31 118
32 127 16 13 -24 65 -46 107 -46 28 0 54 10 98 40 131 87 236 83 384 -17 121
-81 213 -106 380 -105 214 1 436 63 514 143 120 122 528 285 875 349 353 65
544 224 468 388 -16 35 -55 93 -80 120 -15 15 -27 52 -20 59 3 3 21 7 39 8 76
8 127 48 166 133 48 105 28 248 -39 280 -34 16 -56 17 -160 7 -121 -10 -123 5
-18 136 34 42 48 96 36 141 -18 73 -73 113 -182 134 -129 25 -518 24 -865 -1
-169 -13 -218 -17 -239 -20 -13 -2 -67 -7 -120 -11 -53 -4 -99 -8 -103 -11 -4
-2 -76 -6 -161 -10 -147 -6 -157 -5 -201 17 -78 37 -137 130 -210 332 -49 135
-92 219 -144 278 -96 110 -229 149 -375 109 -201 -54 -312 -274 -247 -490 25
-81 55 -130 139 -224 113 -125 151 -221 146 -363 -4 -133 -86 -218 -229 -236
-90 -11 -131 -76 -143 -225 -5 -72 -15 -101 -34 -101 -5 0 -43 -20 -85 -45
-41 -25 -77 -45 -79 -45 -2 0 -249 -141 -366 -209 -228 -132 -329 -188 -329
-181 0 4 7 27 16 51 33 93 100 368 119 489 3 19 7 46 10 60 3 14 7 43 10 65 2
22 8 67 12 100 18 145 8 551 -17 675 -6 25 -12 56 -14 70 -35 204 -138 453
-271 655 -20 29 -20 29 0 21 11 -5 64 -10 119 -12 98 -4 99 -4 155 -46 135
-101 350 -302 451 -423 43 -51 123 -157 159 -210 37 -55 68 -84 90 -85 11 0
12 11 8 53 -20 166 -202 437 -472 699 -37 36 -56 61 -50 67 6 5 28 14 50 21
248 80 737 413 911 621 38 45 42 59 18 59 -17 0 -87 -35 -114 -56 -37 -30
-232 -116 -290 -129 -3 -1 -23 -6 -45 -13 -22 -6 -51 -13 -65 -16 -23 -4 -98
-18 -110 -21 -3 -1 -32 -5 -65 -9 -33 -4 -70 -9 -83 -11 -151 -24 -593 -23
-796 2 -29 3 -75 20 -116 43 -74 43 -232 118 -325 156 -33 14 -69 29 -80 34
-22 10 -173 63 -219 77 -29 9 -28 10 35 33 112 41 259 122 309 170 111 106
144 130 179 130 122 0 237 -41 311 -109 25 -22 50 -41 57 -41 33 0 -32 128
-102 202 -19 21 -59 54 -87 74 -29 20 -55 37 -56 39 -2 2 23 39 55 82 190 251
295 500 309 738 4 64 1 97 -8 114 -16 30 -31 36 -46 19z"/>
</g>
</svg>
